<?xml version="1.0" encoding="utf-8"?>
<!-- Generator: Adobe Illustrator 22.1.0, SVG Export Plug-In . SVG Version: 6.00 Build 0)  -->
<svg version="1.1" id="Layer_1" xmlns="http://www.w3.org/2000/svg" xmlns:xlink="http://www.w3.org/1999/xlink" x="0px" y="0px"
	 viewBox="0 0 215 152" style="enable-background:new 0 0 215 152;" xml:space="preserve">
<style type="text/css">
	.st0{fill:#FF3600;}
	.st1{fill:none;stroke:#FF3600;stroke-miterlimit:10;}
</style>
<g>
	<g>
		<path class="st0" d="M95.1,45.1L95,44.6l0.4-0.1l-0.8-3.8c-0.4,0.2-0.6,0.8-0.7,1.2l-0.5,0l0-1.7c0.1,0,0.2,0,0.3,0
			c0.1,0,0.2,0,0.3,0l2.5-0.5c0.2,0,0.4-0.1,0.5-0.2l0.6,1.5l-0.4,0.2c-0.2-0.4-0.6-0.9-1.1-0.9l0.8,3.8l0.4,0l0.1,0.5L95.1,45.1z"
			/>
		<path class="st0" d="M99,38.8l0.4,2.2c0.2-0.2,0.5-0.5,0.9-0.5c0.6-0.1,1.2,0.3,1.3,0.8l0.4,1.9l0.3,0l0.1,0.5l-1.8,0.4l-0.1-0.5
			l0.2-0.1l-0.4-1.8c-0.1-0.3-0.2-0.4-0.5-0.4c-0.2,0-0.3,0.2-0.3,0.4l0.4,1.9l0.2,0l0.1,0.5l-1.8,0.4L98.4,44l0.3-0.1L97.9,40
			c0-0.1-0.2-0.2-0.4-0.1l-0.1-0.4L99,38.8z"/>
		<path class="st0" d="M103.8,41.9c0.1,0.4,0.4,0.7,0.8,0.6c0.3-0.1,0.5-0.3,0.6-0.6l0.4,0.3c-0.2,0.6-0.7,1-1.3,1.1
			c-1.1,0.2-1.7-0.5-1.9-1.4c-0.2-1.1,0.3-2,1.2-2.2c0.9-0.2,1.5,0.5,1.8,1.3L103.8,41.9z M103.6,41.4l0.3-0.1
			c0.2-0.1,0.3-0.2,0.2-0.4c0-0.2-0.2-0.6-0.5-0.6c-0.3,0.1-0.2,0.5-0.1,0.8L103.6,41.4z"/>
		<path class="st0" d="M64.6,61.7l-1-5.1l-1.4,0.1L61.9,55l7.7-1.5l0.3,1.6l-1.3,0.4l2.6,12.8l1.4-0.1l0.3,1.6l-7.7,1.5l-0.3-1.7
			l1.3-0.5L65,63.5l-4.2,0.9l1.2,5.9l1.4-0.1l0.3,1.6L56,73.3l-0.3-1.6l1.3-0.5l-2.6-12.8L53,58.5l-0.3-1.6l7.7-1.5l0.3,1.6
			l-1.3,0.4l1,5.1L64.6,61.7z"/>
		<path class="st0" d="M84.8,61.6c0.7,3.6-1.3,6.5-4.7,7.2c-3.4,0.7-6.3-1.2-7.1-4.9c-0.7-3.6,1.3-6.5,4.7-7.2
			C81.2,56.1,84.1,58,84.8,61.6z M77.6,63.1c0.5,2.5,0.9,4.5,2.2,4.2c1.3-0.3,1-2.2,0.4-4.7c-0.3-1.7-0.9-4.5-2.2-4.2
			C76.7,58.6,77.3,61.4,77.6,63.1z"/>
		<path class="st0" d="M98.9,61.9c0.1,0.6,0.3,1,1,0.9l0.3,1.4L96,65.7c-0.4-0.5-0.8-1.1-1-1.5c-0.9,1.3-1.8,2-3,2.3
			c-2.1,0.4-3.8-0.4-4.3-2.8l-1-5.2c-0.1-0.4-0.7-0.5-1.2-0.4l-0.3-1.4l5.1-2.4l1.6,8.1c0.2,1,0.6,1.5,1.7,1.3
			c0.5-0.1,1.1-0.7,1-1.2l-1.1-5.4c-0.1-0.4-0.7-0.5-1.2-0.4l-0.3-1.4l5.1-2.4L98.9,61.9z"/>
		<path class="st0" d="M108.6,52.9c0.2,1-0.5,1.6-1.4,1.8c-1.1,0.2-2-0.7-2.4-1.7c-0.6,0.1-1.4,0.6-1.2,1.5c0.4,1.8,5.8-0.6,6.7,3.9
			c0.7,3.4-2,4.8-4.4,5.3c-1.4,0.3-4.3,0.7-4.7-1.5c-0.2-1,0.4-2,1.4-2.2c1.5-0.3,2.1,1,2.6,1.9c0.1,0.2,0.7,0.2,0.9,0.1
			c0.7-0.1,1.4-0.7,1.3-1.5c-0.4-1.9-5.8,0.4-6.7-4c-0.7-3.3,2-4.7,4.4-5.1C106.8,51,108.2,51.3,108.6,52.9z"/>
		<path class="st0" d="M115.8,56.4c0.4,1.2,1.4,2.3,2.8,2c1.1-0.2,1.6-1,2-2l1.4,1.1c-0.7,2-2.5,3.4-4.5,3.8
			c-3.6,0.7-5.8-1.6-6.4-4.6c-0.8-3.8,0.9-6.8,4.2-7.5c3.1-0.6,5.3,1.6,6,4.4L115.8,56.4z M115.2,54.7l1-0.5c0.6-0.3,1-0.6,0.8-1.5
			c-0.2-0.8-0.6-2.1-1.5-1.9c-1,0.2-0.6,1.8-0.5,2.7L115.2,54.7z"/>
		<path class="st0" d="M141.7,50.2c0.7,3.6-1.3,6.5-4.7,7.2c-3.4,0.7-6.3-1.2-7.1-4.9c-0.7-3.6,1.3-6.5,4.7-7.2
			C138.1,44.7,141,46.6,141.7,50.2z M134.5,51.7c0.5,2.5,0.9,4.5,2.2,4.2s1-2.2,0.4-4.7c-0.4-1.7-0.9-4.5-2.2-4.2
			C133.6,47.2,134.2,49.9,134.5,51.7z"/>
		<path class="st0" d="M144.7,55.5l-0.3-1.6l1.1-0.4l-1.6-7.9l-1.1,0.2l-0.3-1.7l1.2-0.2l-0.2-0.8c-0.6-3,1.1-6.3,4.2-6.9
			c1.4-0.3,3.2,0.1,3.6,1.8c0.2,0.9-0.4,2.2-1.6,2.4c-1.3,0.3-2.1-0.6-2.9-1.9c-0.9,0.2-0.7,1.4-0.7,1.6c0.2,0.8,1.3,3.1,1.8,2.9
			l1.9-0.4l0.3,1.7l-2,0.4l1.6,7.9l1.1-0.1l0.3,1.6L144.7,55.5z"/>
		<path class="st0" d="M82.9,88.3c-3.1-3.9-6.7-7.7-12.2-6.6c-2.1,0.4-3.9,2.1-3.4,4.3c1.4,7,20.7,0,23.6,14.6
			c1.4,7.1-1.8,13.8-11.2,15.7c-4.2,0.8-8.5-0.2-9.7,0c-1.4,0.3-2.3,1.5-3.2,2.6l-4.9-12.5l3.2-1.6c3.4,4.3,7.5,8.7,13.6,7.5
			c2.9-0.6,5.5-2,4.8-5.4c-1.5-7.7-20.9-1-23.6-14.5c-1.6-7.9,2.3-13.3,10.1-14.8c3.5-0.7,7.2,0.2,8.4,0c1.4-0.3,2.3-1.5,3.2-2.6
			l4.5,11.7L82.9,88.3z"/>
		<path class="st0" d="M103.7,71.7l0.8,3.7l-2.4,0.9l9.3,11.5l2.7-8.6c0.3-1.1,0.4-2.1,0.3-2.6c-0.4-1.9-2.2-2.4-4.1-2.3l-0.8-3.7
			l12.7-2.6l0.8,3.7c-3.4,1.5-4.1,4.4-5.1,7.8l-3.7,13.2l2.2,11l3.2-0.2l0.8,3.7l-17.5,3.5l-0.8-3.7l3-1.1l-2.2-11L89.6,78.8l-1.9,0
			L87,75.1L103.7,71.7z"/>
		<path class="st0" d="M126.3,71.5l-3.2,0.2l-0.8-3.7l18.4-3.7c7.1-1.4,15.4-1,17.1,7.5c1.7,8.6-5.8,12.1-12.9,13.6l-4,0.8l2.5,12.2
			l3.2-0.2l0.8,3.7l-17.5,3.5l-0.8-3.7l3-1.1L126.3,71.5z M140.2,82.2l1.9-0.4c3.9-0.8,4.6-3.8,3.9-7.6c-0.8-3.7-2.6-6.3-6.5-5.5
			c-0.7,0.1-1.4,0.4-1.9,0.8L140.2,82.2z"/>
	</g>
</g>
<ellipse transform="matrix(0.9804 -0.1968 0.1968 0.9804 -13.186 22.5425)" class="st1" cx="106.8" cy="77.6" rx="104" ry="69.6"/>
<g>
</g>
<g>
</g>
<g>
</g>
<g>
</g>
<g>
</g>
<g>
</g>
<g>
</g>
<g>
</g>
<g>
</g>
<g>
</g>
<g>
</g>
<g>
</g>
<g>
</g>
<g>
</g>
<g>
</g>
</svg>
