<?xml version="1.0" encoding="utf-8"?>
<!-- Generator: Adobe Illustrator 22.1.0, SVG Export Plug-In . SVG Version: 6.00 Build 0)  -->
<svg version="1.1" id="Layer_1" xmlns="http://www.w3.org/2000/svg" xmlns:xlink="http://www.w3.org/1999/xlink" x="0px" y="0px"
	 viewBox="0 0 395 134" style="enable-background:new 0 0 395 134;" xml:space="preserve">
<style type="text/css">
	.st0{fill:none;stroke:#FF3600;stroke-width:0.45;stroke-miterlimit:10;}
</style>
<g>
	<g>
		<path class="st0" d="M30.8,62.6c-6.1-3-12.7-5.7-18.8-1.2c-2.3,1.7-3.6,4.8-1.8,7.3c5.8,7.8,25.5-11.8,37.5,4.5
			c5.8,7.9,5.7,18.1-4.8,25.8c-4.7,3.4-10.6,4.6-12,5.6c-1.6,1.2-2,3.2-2.5,5L15.3,97l3.1-3.8c6.7,3.3,14.3,6.4,21.1,1.5
			c3.2-2.4,5.6-5.6,2.8-9.4C36,76.6,16,95.9,4.9,80.9c-6.5-8.9-4.8-17.7,3.9-24c3.9-2.9,9-3.9,10.4-4.8c1.6-1.2,2-3.2,2.5-5
			l12.2,11.9L30.8,62.6z"/>
		<path class="st0" d="M55.5,47.1l3.2,4.2c1.4-3.9,3.7-7.4,7.6-9.1c5.9-2.7,11.8-1.7,15.1,5.4l8.5,18.4l3.4-1l2.1,4.4l-17.5,8.1
			l-2.1-4.4l1.9-1.4l-8-17.3c-1.3-2.9-3-4.1-6.1-2.6c-1.5,0.7-2.7,2.7-2,4.4l8.8,19l2.3-0.5l2.1,4.4l-17.5,8.1L55,82.6l2.9-1.9
			l-8.9-19.1c-0.6-1.3-2.5-1.1-4-0.4l-1.8-3.9L55.5,47.1z"/>
		<path class="st0" d="M127.8,54.4c0.2,0.8,0.9,1,1.6,0.8c0.5-0.1,1-0.3,1.2-0.6l2.5,3.5c-2.1,2.8-5.3,4.5-8.7,5.4
			c-2.7,0.7-5.7,0-7.6-2.1c-2.6,3.6-5.7,5.4-10,6.5c-5.8,1.4-11.6-1-13.1-6.9c-2.7-10.7,8.8-16.4,16.8-20.1c-1-3.2-3.2-6.6-7-6.2
			c0.2,3.9-1.5,7.9-5.4,8.9c-3.1,0.8-6.4,0-7.3-3.5c-1.4-5.8,3.7-8.3,8.4-9.4c9.7-2.4,22.2-1.8,25.6,11.9L127.8,54.4z M111.6,45.4
			c-4.4,2-5.7,5.2-4.8,9.2c0.5,2.1,2,5.1,4.5,4.5c1.4-0.4,3.2-1.8,2.8-3.3L111.6,45.4z"/>
		<path class="st0" d="M164.4,49.7c-2.1,6-7.4,9.7-14.5,10.3c-11.3,1.1-18.6-5.3-19.7-16.6c-1-10.5,6.2-20.2,17.8-21.3
			c5-0.5,12.8,0.9,13.3,7c0.4,4.1-1.5,6.6-6.2,7c-4.8,0.5-7.2-5.6-8-8.3c-0.1-0.4-0.5-0.6-1-0.6c-2.1,0.2-2.6,6-2.3,9.6
			c0.6,5.8,2.2,16.1,10,15.4c3.3-0.3,4.8-3.2,6.4-5.8L164.4,49.7z"/>
		<path class="st0" d="M164.8,57.5l0.2-4.9l3.5-0.4l1.4-41.1c0-1.4-1.7-2.1-3.4-2.2l0.1-4.3l17.1-3.1l-1.1,31.8l5.5-5.7
			c3-3.1,6.7-6,11.4-5.9c3.7,0.1,6.8,2.2,6.7,6.2c-0.1,3.5-2.1,6.2-5.8,6c-3.3-0.1-5.3-1.4-7-4.2l-1.6,0.8l10.2,22.6l2.3,0.6
			l-0.2,4.9l-14.2-0.5l-7.1-19.3l-0.6,0.4L182,52.6l2.3,0.6l-0.2,4.9L164.8,57.5z"/>
		<path class="st0" d="M243.9,56.7l-1.1-31.5l-0.1,0L234.5,50l-0.7,2.5c-0.8,2.6,1.1,5.4,4,6.3l-1.5,5l-15.8-4.6l1.5-5
			c4.8,0.6,5.9-1.4,7.3-5.6l10.7-31.9l-4-1.7l1.5-5l19.6,5.7l1,23.6l0.1,0L271.8,20l19.2,5.6l-1.5,5l-3.7-0.5l-10.3,39.2l3.4,1.6
			l-1.5,5l-22.5-6.5l1.5-5l3.7,0.5l8.8-31.9l-0.1,0l-18.2,25.9L243.9,56.7z"/>
		<path class="st0" d="M295.6,70.8c-1.6,3.6-1.3,8.3,2.5,10.4c3,1.7,5.9,0.9,8.8-0.6l1,5.5c-5.7,3.3-12.7,2.9-18.3-0.3
			c-9.8-5.6-10.3-15.6-5.7-23.8c5.9-10.4,15.9-14,24.9-8.9c8.5,4.8,9.1,14.3,5.2,22.4L295.6,70.8z M297.5,65.6l3.3,0.8
			c1.9,0.5,3.4,0.6,4.8-1.9c1.2-2.1,2.7-6.1,0.3-7.5c-2.6-1.5-5.2,3-6.5,5.3L297.5,65.6z"/>
		<path class="st0" d="M337.7,71.6l-2,4.9c4.1-0.8,8.2-0.6,11.7,1.8c5.4,3.7,7.5,9.2,3.2,15.7l-11.4,16.8l2.6,2.4l-2.8,4.1l-16-10.8
			l2.8-4.1l2.2,0.9l10.7-15.8c1.8-2.6,1.9-4.7-0.9-6.6c-1.4-1-3.8-0.9-4.8,0.5l-11.8,17.3l1.6,1.7l-2.8,4.1l-16-10.8l2.8-4.1
			l3.2,1.5L322,73.5c0.8-1.2-0.3-2.7-1.7-3.7l2.4-3.6L337.7,71.6z"/>
		<path class="st0" d="M384.9,125c-0.6,1.8-0.6,3.2,1.5,3.9l-1.3,4.1l-13.6-1.9c-0.5-2-0.5-4.2-0.5-5.4c-4.5,2.3-7.9,2.8-11.6,1.7
			c-6.2-1.9-9.9-6.6-7.7-14.1l4.8-15.6c0.4-1.3-1.1-2.4-2.7-3l1.3-4.1l17.4,1.1l-7.5,24.4c-0.9,3.1-0.5,5.1,2.8,6.1
			c1.6,0.5,3.9-0.2,4.4-1.9l5-16.3c0.4-1.3-1.1-2.4-2.7-3l1.3-4.1l17.4,1.1L384.9,125z"/>
	</g>
</g>
<g>
</g>
<g>
</g>
<g>
</g>
<g>
</g>
<g>
</g>
<g>
</g>
<g>
</g>
<g>
</g>
<g>
</g>
<g>
</g>
<g>
</g>
<g>
</g>
<g>
</g>
<g>
</g>
<g>
</g>
</svg>
